STARTFONT 2.1
COMMENT This file is part of bdf-tewi.
COMMENT 
COMMENT Tewi is free software: you can redistribute it and/or modify
COMMENT it under the terms of the GNU General Public License as published by
COMMENT the Free Software Foundation, either version 3 of the License, or
COMMENT (at your option) any later version.
COMMENT 
COMMENT Tewi is distributed in the hope that it will be useful,
COMMENT but WITHOUT ANY WARRANTY; without even the implied warranty of
COMMENT MERCHANTABILITY or FITNESS FOR A PARTICULAR PURPOSE.  See the
COMMENT GNU General Public License for more details.
COMMENT 
COMMENT You should have received a copy of the GNU General Public License
COMMENT along with bdf-tewi.  If not, see <http://www.gnu.org/licenses/>.
COMMENT 
COMMENT As a special exception, if you create a document which uses this
COMMENT font, and embed this font or unaltered portions of this font into
COMMENT the document, this font does not by itself cause the resulting
COMMENT document to be covered by the GNU General Public License. This
COMMENT exception does not however invalidate any other reasons why the
COMMENT document might be covered by the GNU General Public License. If you
COMMENT modify this font, you may extend this exception to your version of
COMMENT the font, but you are not obligated to do so. If you do not wish to
COMMENT do so, delete this exception statement from your version.
FONT -lucy-tewifw-medium-r-normal--11-90-75-75-m-60-ISO10646-1
SIZE 9 75 75
FONTBOUNDINGBOX 12 13 0 -4
STARTPROPERTIES 20
CHARSET_COLLECTIONS "ISO8859-2 ISO8859-5 ISO8859-9 ISO8859-4 ISO10646-1"
COPYRIGHT "© lucy <ne.tetewi@gmail.com>"
FOUNDRY "lucy"
FAMILY_NAME "tewifw"
WEIGHT_NAME "medium"
SLANT "r"
SETWIDTH_NAME "normal"
ADD_STYLE_NAME ""
PIXEL_SIZE 11
POINT_SIZE 90
RESOLUTION_X 75
RESOLUTION_Y 75
SPACING "M"
AVERAGE_WIDTH 60
CHARSET_REGISTRY "ISO10646"
CHARSET_ENCODING "1"
FONT_ASCENT 9
FONT_DESCENT 3
QUAD_WIDTH 12
_GBDFED_INFO "Edited with gbdfed 1.6."
ENDPROPERTIES
CHARS 35
STARTCHAR char0
ENCODING 0
SWIDTH 1280 0
DWIDTH 12 0
BBX 0 0 0 0
BITMAP
ENDCHAR
STARTCHAR char65103
ENCODING 65099
SWIDTH 1280 0
DWIDTH 12 0
BBX 10 2 0 6
BITMAP
9980
6640
ENDCHAR
STARTCHAR char65103
ENCODING 65103
SWIDTH 1280 0
DWIDTH 12 0
BBX 10 2 0 -1
BITMAP
9980
6640
ENDCHAR
STARTCHAR char65281
ENCODING 65281
SWIDTH 1280 0
DWIDTH 12 0
BBX 1 7 5 0
BITMAP
80
80
80
80
80
00
80
ENDCHAR
STARTCHAR char65282
ENCODING 65282
SWIDTH 1280 0
DWIDTH 12 0
BBX 3 3 4 5
BITMAP
A0
A0
A0
ENDCHAR
STARTCHAR char65283
ENCODING 65283
SWIDTH 1280 0
DWIDTH 12 0
BBX 8 8 2 0
BITMAP
12
12
7F
24
24
FE
48
48
ENDCHAR
STARTCHAR char65284
ENCODING 65284
SWIDTH 1280 0
DWIDTH 12 0
BBX 7 9 2 -1
BITMAP
10
7C
92
90
7C
12
92
7C
10
ENDCHAR
STARTCHAR char65285
ENCODING 65285
SWIDTH 1280 0
DWIDTH 12 0
BBX 8 8 2 0
BITMAP
62
92
94
68
16
29
49
46
ENDCHAR
STARTCHAR char65286
ENCODING 65286
SWIDTH 1280 0
DWIDTH 12 0
BBX 8 8 2 0
BITMAP
30
48
50
20
57
8A
8C
73
ENDCHAR
STARTCHAR char65287
ENCODING 65287
SWIDTH 1280 0
DWIDTH 12 0
BBX 2 4 3 4
BITMAP
C0
C0
40
80
ENDCHAR
STARTCHAR char65288
ENCODING 65288
SWIDTH 1280 0
DWIDTH 12 0
BBX 3 10 4 -2
BITMAP
20
40
40
80
80
80
80
40
40
20
ENDCHAR
STARTCHAR char65288
ENCODING 65289
SWIDTH 1280 0
DWIDTH 12 0
BBX 3 10 4 -2
BITMAP
80
40
40
20
20
20
20
40
40
80
ENDCHAR
STARTCHAR char65290
ENCODING 65290
SWIDTH 1280 0
DWIDTH 12 0
BBX 5 6 3 1
BITMAP
20
A8
70
70
A8
20
ENDCHAR
STARTCHAR char65291
ENCODING 65291
SWIDTH 1280 0
DWIDTH 12 0
BBX 7 7 2 0
BITMAP
10
10
10
FE
10
10
10
ENDCHAR
STARTCHAR char65292
ENCODING 65292
SWIDTH 1280 0
DWIDTH 12 0
BBX 2 4 1 -2
BITMAP
C0
C0
40
80
ENDCHAR
STARTCHAR char65293
ENCODING 65293
SWIDTH 1280 0
DWIDTH 12 0
BBX 9 1 1 3
BITMAP
FF80
ENDCHAR
STARTCHAR char65294
ENCODING 65294
SWIDTH 1280 0
DWIDTH 12 0
BBX 3 2 0 0
BITMAP
60
60
ENDCHAR
STARTCHAR char65295
ENCODING 65295
SWIDTH 1280 0
DWIDTH 12 0
BBX 9 9 1 -2
BITMAP
0080
0100
0200
0400
0800
1000
2000
4000
8000
ENDCHAR
STARTCHAR char65296
ENCODING 65296
SWIDTH 1280 0
DWIDTH 12 0
BBX 6 8 2 0
BITMAP
78
8C
94
94
A4
A4
C4
78
ENDCHAR
STARTCHAR char65297
ENCODING 65297
SWIDTH 1280 0
DWIDTH 12 0
BBX 5 8 3 0
BITMAP
20
60
A0
20
20
20
20
F8
ENDCHAR
STARTCHAR char65298
ENCODING 65298
SWIDTH 1280 0
DWIDTH 12 0
BBX 6 8 2 0
BITMAP
78
84
84
08
10
20
40
FC
ENDCHAR
STARTCHAR char65299
ENCODING 65299
SWIDTH 1280 0
DWIDTH 12 0
BBX 6 8 2 0
BITMAP
78
84
04
38
04
04
84
78
ENDCHAR
STARTCHAR char65300
ENCODING 65300
SWIDTH 1280 0
DWIDTH 12 0
BBX 6 8 2 0
BITMAP
08
18
28
48
88
FC
08
1C
ENDCHAR
STARTCHAR char65299
ENCODING 65301
SWIDTH 1280 0
DWIDTH 12 0
BBX 6 8 2 0
BITMAP
FC
80
80
78
04
04
84
78
ENDCHAR
STARTCHAR char65299
ENCODING 65302
SWIDTH 1280 0
DWIDTH 12 0
BBX 6 8 2 0
BITMAP
78
80
80
F8
84
84
84
78
ENDCHAR
STARTCHAR char65303
ENCODING 65303
SWIDTH 1280 0
DWIDTH 12 0
BBX 6 8 2 0
BITMAP
FC
04
08
10
10
20
20
20
ENDCHAR
STARTCHAR char65299
ENCODING 65304
SWIDTH 1280 0
DWIDTH 12 0
BBX 6 8 2 0
BITMAP
78
84
84
78
84
84
84
78
ENDCHAR
STARTCHAR char65299
ENCODING 65305
SWIDTH 1280 0
DWIDTH 12 0
BBX 6 8 2 0
BITMAP
78
84
84
84
7C
04
04
78
ENDCHAR
STARTCHAR char65292
ENCODING 65306
SWIDTH 1280 0
DWIDTH 12 0
BBX 2 6 1 0
BITMAP
C0
C0
00
00
C0
C0
ENDCHAR
STARTCHAR char65292
ENCODING 65307
SWIDTH 1280 0
DWIDTH 12 0
BBX 2 8 1 -2
BITMAP
C0
C0
00
00
C0
C0
40
80
ENDCHAR
STARTCHAR char65308
ENCODING 65308
SWIDTH 1280 0
DWIDTH 12 0
BBX 7 9 1 -1
BITMAP
02
04
08
10
20
10
08
04
02
ENDCHAR
STARTCHAR char65308
ENCODING 65309
SWIDTH 1280 0
DWIDTH 12 0
BBX 6 4 2 2
BITMAP
FC
00
00
FC
ENDCHAR
STARTCHAR char65308
ENCODING 65310
SWIDTH 1280 0
DWIDTH 12 0
BBX 5 9 3 -1
BITMAP
80
40
20
10
08
10
20
40
80
ENDCHAR
STARTCHAR char65299
ENCODING 65311
SWIDTH 1280 0
DWIDTH 12 0
BBX 6 8 2 0
BITMAP
78
84
84
08
10
10
00
10
ENDCHAR
STARTCHAR char65299
ENCODING 65312
SWIDTH 1280 0
DWIDTH 12 0
BBX 8 8 2 0
BITMAP
3E
41
9D
A5
A5
9A
40
3E
ENDCHAR
ENDFONT
